<svg version="1.1" xmlns="http://www.w3.org/2000/svg" xmlns:xlink="http://www.w3.org/1999/xlink" width="355.03532" height="346.58854" viewBox="0,0,355.03532,346.58854"><g transform="translate(-62.48234,-6.70573)"><g data-paper-data="{&quot;isPaintingLayer&quot;:true}" fill-rule="nonzero" stroke="none" stroke-width="1" stroke-linecap="butt" stroke-linejoin="miter" stroke-miterlimit="10" stroke-dasharray="" stroke-dashoffset="0" style="mix-blend-mode: normal"><path d="M110.77915,319.38453v0c0,0 7.29905,-8.26653 21.18728,0.74708l-1.55713,1.56572l1.51133,3.99587c1.92351,3.3547 4.06171,6.61494 6.39168,9.76069c-6.80386,4.52255 -24.77384,0.56389 -30.01484,-5.59021c0.24044,-2.01225 1.02187,-3.85275 1.86627,-5.67322c0,0 1.7575,-3.9329 1.93496,-4.41092c0.08301,-0.22899 -0.59251,-0.3349 -1.31955,-0.39501z" fill="#808080"/><path d="M105.58967,333.63055c-4.99484,-4.08174 0.08301,-7.09296 1.29379,-10.55071l2.32711,-3.73253c0,0 0.85012,-0.00572 1.643,0.05439c0.72418,0.05439 1.3997,0.16888 1.31669,0.39215c-0.18033,0.48088 -1.93496,4.41092 -1.93496,4.41092c-0.8444,1.82333 -1.62583,3.66097 -1.86627,5.67609c5.241,6.15696 23.21098,10.1099 30.01484,5.59021c-2.32997,-3.14289 -4.46816,-6.40599 -6.39168,-9.76069l-1.51133,-3.99587l1.55713,-1.56572l0.93027,-0.94172c0,0 1.56572,1.07625 3.71822,4.27638c0.39215,0.61541 0.76712,1.23655 1.18216,1.86054c1.84623,2.77078 5.34405,6.18845 6.64643,9.00502c3.76402,8.08907 -24.94272,10.70527 -38.92541,-0.71846z" fill="#000000"/><path d="M144.60954,223.54656c1.60007,-14.5523 11.91892,-21.6882 16.39853,-27.33566c1.60579,-0.86157 3.14575,-1.43691 4.47103,-1.48557c11.13749,-0.40359 23.92944,14.91296 25.27189,21.69392c0.65835,3.31463 1.05622,6.2457 1.25086,8.90198c-4.45958,26.47695 -33.54701,41.41281 -33.54701,41.41281c-23.21957,11.88171 -35.98289,36.21188 -27.41867,53.34032c1.72315,3.4463 -11.03731,0.3578 -16.85079,-2.05805c-0.48947,-0.30341 -5.46999,-2.30421 -5.1351,-4.71147c8.29516,-9.19108 13.02952,-18.02436 15.46254,-29.72574c0.79574,-3.84417 1.52278,-9.88377 4.63418,-12.7347c6.6407,-6.08254 11.7987,-11.70138 15.4654,-19.81621c3.94435,-8.73882 -0.98752,-18.49379 -0.00286,-27.48164z" fill="#f3f3f3"/><path d="M195.76586,229.47454c-0.71559,2.32711 -7.63395,28.01977 -38.70214,44.15496c-14.84713,7.1359 -26.78036,25.58389 -23.78632,41.08364c0.5553,2.87096 1.81474,5.44996 3.32321,7.83718c-0.13739,0.76712 0.22899,1.98076 -0.48374,2.25555c-5.47286,2.10957 -18.47089,0.91882 -28.78974,-4.36512c-2.39581,-1.22796 -5.36122,-4.49393 -5.36122,-6.90404c0,-4.39947 20.47455,-15.94342 19.84197,-43.87445c-0.02576,-1.11346 0.5553,-1.98649 1.88917,-2.83947c31.96125,-20.42303 10.09845,-29.37367 16.28118,-47.76155c2.18113,-6.50045 13.63921,-23.47432 21.17011,-26.08194l1.00469,1.62297c-0.30914,0.52381 -0.70987,1.06194 -1.14209,1.60579c-4.47961,5.64746 -14.79847,12.78336 -16.39853,27.33566c-0.98752,8.99071 3.94435,18.74568 0,27.4845c-3.6667,8.11483 -8.8247,13.73366 -15.4654,19.81621c-3.1114,2.85092 -3.83844,8.89053 -4.63418,12.7347c-2.43302,11.70138 -7.16738,20.53466 -15.46254,29.72574c-0.3349,2.40439 4.64563,4.40805 5.1351,4.71147c5.81348,2.41584 18.57394,5.50434 16.85079,2.05805c-8.56136,-17.1313 4.1991,-41.46147 27.41867,-53.34032c0,0 29.08743,-14.93586 33.54701,-41.41281c0.04866,-0.28624 0.10877,-0.56389 0.15171,-0.85299c0,0 1.99794,-3.21731 3.60659,-0.89306c1.61152,2.32711 0.72132,3.57224 0.00572,5.89935z" fill="#000000"/><path d="M379.43001,149.3281v0c0,0 2.83089,-10.65948 19.28667,-8.81038l-0.69269,2.09812l3.14002,2.89386c3.22303,2.14105 6.59491,4.10178 10.087,5.87073c-4.06457,7.0901 -21.9086,11.59547 -29.35077,8.43255c-0.68983,-1.9092 -0.81291,-3.90428 -0.87302,-5.9108c0,0 -0.18892,-4.30501 -0.2433,-4.81165c-0.02576,-0.2433 -0.67838,-0.04007 -1.3539,0.23758z" fill="#808080"/><path d="M381.15029,164.38704c-6.29436,-1.41687 -3.09995,-6.38309 -3.56079,-10.01544l0.41218,-4.37943c0,0 0.75853,-0.38642 1.4913,-0.68983c0.67838,-0.27479 1.32814,-0.48088 1.35676,-0.23758c0.05439,0.50664 0.2433,4.81165 0.2433,4.81165c0.06297,2.00652 0.18319,4.0016 0.87016,5.9108c7.44503,3.16292 25.2862,-1.34245 29.35077,-8.43255c-3.48637,-1.76895 -6.86111,-3.72967 -10.08414,-5.87073l-3.14002,-2.89386l0.68983,-2.09812l0.41504,-1.25658c0,0 1.88058,0.26048 5.241,2.16109c0.62686,0.37497 1.23655,0.76425 1.8863,1.1335c2.891,1.65731 7.54808,3.14861 9.97537,5.08644c6.98419,5.55014 -17.52058,20.73789 -35.14707,16.77064z" fill="#000000"/><path d="M305.8155,165.18851c0.17174,0.4866 0.35493,1.21651 0.5782,1.98362c-4.43668,-0.97321 -8.63578,-3.03412 -11.98762,-6.08254c-6.24856,-5.68467 -0.63545,-23.86074 3.38046,-30.79627c0.92455,-1.5972 2.21548,-2.92248 3.71536,-4.05884c0,0.00572 -0.00859,0.01431 -0.00859,0.01717c0.44081,1.40542 1.42546,4.60842 3.63235,4.09033c1.25658,-0.29769 26.14777,-13.28713 28.50065,-14.60669c10.72817,-6.01098 15.61138,-19.94501 29.38512,-20.9955c2.14392,-0.16029 7.99747,-1.19361 8.8848,1.41687c0.52095,1.50847 0.0687,3.16292 0.25761,4.73436c0.64976,5.21811 2.52748,10.27306 4.76299,15.08184c4.61987,9.8895 24.33876,23.57164 21.18728,25.99034c-4.00732,3.07419 -24.97706,7.69406 -25.82146,3.96725c-1.84051,-8.11769 -2.25555,-28.50351 -9.85229,-33.81607c-0.30627,-0.2433 -0.624,-0.46084 -0.96462,-0.624c0.00286,-0.00286 0.00286,-0.00286 0,0c-32.93446,2.61621 -29.47385,39.45208 -55.65025,53.69811z" fill="#f3f3f3"/><path d="M377.5208,151.50637c0.01145,-0.05152 0.03435,-0.09732 0.0458,-0.14884c-2.4416,0.18319 -6.90691,1.11919 -8.76459,-0.82723c-1.88344,-1.9779 -1.10201,-7.13017 -1.1564,-9.67482c-0.15457,-7.03571 -1.60579,-14.53227 -3.75257,-21.44776c-0.79574,-1.7117 -2.37291,-3.58655 -5.3097,-2.39294c-0.26048,0.14026 -0.52381,0.27193 -0.7986,0.40073c-0.08587,0.04866 -0.16602,0.07442 -0.25475,0.12881l-0.00286,-0.01145c-2.43588,1.10774 -5.27822,1.90348 -6.88687,2.68491c-5.72188,2.78223 -9.29126,6.03102 -11.80156,9.44011c-3.13716,4.2678 -4.61414,8.78176 -6.52335,12.93792c-0.97034,2.10671 -6.29722,9.75497 -11.67562,16.53306c-4.56835,5.75623 -9.17677,10.8856 -11.18329,11.43232c-1.71456,0.46657 -2.51889,-1.56572 -3.05415,-3.38619c-0.22327,-0.76712 -0.40359,-1.49702 -0.5782,-1.98362c26.16781,-14.24889 22.7072,-51.08477 55.64739,-53.70097c0.00286,-0.00286 0.00286,-0.00286 0.00286,-0.00286c0.34062,0.16602 0.6469,0.40646 0.96176,0.62686c7.59674,5.31256 8.00892,25.69838 9.85229,33.81607c0.84154,3.72681 21.81414,-0.8902 25.82146,-3.96725c3.15147,-2.4187 -16.56741,-16.10371 -21.18728,-25.99034c-2.23551,-4.80879 -4.11037,-9.86374 -4.76299,-15.08184c-0.19178,-1.57144 0.26334,-3.22589 -0.25761,-4.73436c-0.88734,-2.61048 -6.74375,-1.57717 -8.8848,-1.41687c-13.7766,1.05049 -18.65695,14.98452 -29.38512,20.9955c-2.35287,1.31955 -27.24406,14.309 -28.50065,14.60669c-2.20689,0.51809 -3.19441,-2.68491 -3.63235,-4.09033c0,-0.00572 0.00859,-0.01145 0.00859,-0.01717c0.4637,-1.643 1.75463,-1.53137 3.69246,-2.29849c2.44733,-0.96748 14.06856,-7.09582 16.63611,-8.00033c15.19347,-5.33833 17.41468,-9.95247 26.87482,-20.60622c6.57773,-7.40782 22.47249,-12.12501 28.47775,-1.41401c1.34245,2.40153 2.0466,9.67196 3.08564,12.97227c4.32218,13.64779 11.95613,22.71579 22.40952,31.00808c5.90794,9.11093 -23.44283,13.22702 -25.16312,13.61058z" fill="#000000"/><path d="M252.62117,63.45119c-1.12777,6.23711 -2.23265,13.76229 -3.18582,22.90757c-0.14312,1.3539 -0.2891,2.66773 -0.44081,3.94149c-14.24603,1.67735 -14.66107,22.24064 -27.8423,23.99813c14.79274,-0.07442 17.03112,-17.98429 27.1954,-19.0863c-0.95031,6.74375 -2.04946,12.19085 -3.20013,16.61607c-9.73779,-0.77284 -12.60589,9.39717 -16.48154,16.15809c-1.6201,1.95214 -2.1754,2.54465 -7.05002,4.2678c10.83408,1.18502 11.96186,-11.46667 19.34105,-16.00066c0.97607,-0.77284 2.32711,-1.34245 3.51786,-1.9779c-4.53686,15.68866 -9.59181,16.43288 -9.59181,16.43288c-7.53949,1.48271 -15.54841,14.75267 -21.90574,11.32355c1.53709,-0.41791 2.6019,-1.23655 3.3776,-2.29849c0.10591,-0.00859 0.22613,-0.03149 0.32345,-0.03149c0,-0.16316 -0.00572,-0.30341 -0.00572,-0.46084c2.579,-4.21341 1.46267,-11.62982 5.12937,-15.41674c0.37211,-0.23758 0.72991,-0.49519 1.07339,-0.76712c1.955,-0.89879 3.10567,-2.32997 2.75933,-4.21055c-7.22463,3.88424 -14.84426,3.29173 -20.5318,-5.21524c10.25874,3.85562 14.67825,0.8444 17.59214,-4.11895c2.31566,-3.95294 -1.62297,-8.33237 -2.27559,-12.28244c-0.3578,-2.15537 1.23655,-3.47778 2.80799,-4.83169c9.10521,-0.38928 17.7324,-5.44423 15.85754,-11.56971c-13.54761,14.74981 -37.95506,5.95374 -23.26823,-8.6415c2.1983,8.63005 10.17573,6.58632 12.4456,3.57224c4.1762,-5.54155 -4.15044,-15.45109 -1.45122,-20.41158c1.32814,-2.4416 5.87645,-6.46896 11.87598,-9.42007c0,0 -1.63441,-1.96359 -10.59078,-3.60373c-1.60865,-0.29482 -3.28314,-1.1564 -6.17128,-2.19544c-14.31473,-6.96988 -15.62569,-21.50501 4.18479,-21.50501c-10.05552,4.89179 -7.34771,14.83568 1.39111,17.08264c9.78645,2.51316 12.25382,-6.62067 20.74361,-7.6683c3.33753,-0.41218 8.12628,0.54099 10.56216,2.83089c0.33776,0.30914 0.51809,1.02473 0.88447,1.36535c1.52851,2.75074 -2.51889,7.70264 -6.52049,28.25734c-22.18339,-2.87382 -9.94388,17.78106 -30.82203,23.70045c23.62602,-0.51809 12.44846,-21.37334 30.27245,-20.74075z" fill="#b3b3b3"/><path d="M262.20439,38.05909c-0.96748,6.79814 -6.69223,18.02722 -9.01647,46.13572c-2.32425,28.1085 -5.35264,49.61351 -20.20835,54.78295c-7.0672,0.2891 -11.1747,7.39923 -20.64057,6.71513c-3.59228,-0.26048 -6.64929,-4.40805 -6.4432,-9.08231c1.51133,1.29665 5.04636,2.89958 7.08437,1.76895c3.09709,-1.71456 0.98466,-10.27878 5.27822,-14.26893c-8.16635,0.46943 -19.83911,-4.48534 -17.48051,-17.64939c1.33959,1.82619 14.40346,10.53926 18.18465,0.30914c1.4684,-3.97011 -7.05861,-8.64437 -1.82333,-14.73263c0.03149,-0.03435 0.0687,-0.06583 0.09732,-0.10018c-0.55816,-0.11736 -1.11346,-0.24044 -1.65445,-0.40359c-4.57407,-1.3768 -10.53639,-8.0862 -9.35137,-12.34828c1.53996,-5.54728 8.23791,-12.23092 14.56089,-13.09249c-1.5972,3.43771 -2.36718,11.74145 2.1754,9.48018c8.9535,-4.45671 -6.35447,-14.07429 0.27193,-20.80372c6.01098,-7.79997 9.45155,-8.47835 9.45155,-8.47835l-13.83671,-4.22486c-0.20895,-0.0458 -0.40932,-0.12308 -0.61255,-0.18605l-0.72991,-0.22327l0.04007,-0.01717c-7.9345,-3.00835 -12.62593,-15.68008 -7.31336,-21.85708c3.14575,-3.65525 8.54418,-5.90221 13.65638,-4.83455c3.24021,0.67552 7.15879,2.79081 8.89339,5.4242c-2.52175,1.07911 -6.60636,1.47985 -7.72841,4.24776c-1.60007,3.93576 2.18685,8.36672 6.82962,6.84107c7.17597,-2.36718 9.45155,-9.5775 19.45555,-8.25508c3.81841,0.50664 10.33889,4.47675 10.48773,7.27329c0.08301,0.26334 0.16029,0.59537 0.23471,0.91596c0.01717,0.08587 0.04007,0.15457 0.06011,0.24616c0.31772,1.51133 0.47802,3.598 0.07728,6.41744zM249.42676,86.36449c0.95317,-9.14528 2.05518,-16.67046 3.18582,-22.90757c-17.82113,-0.63258 -6.64357,20.2198 -30.26959,20.74075c20.87815,-5.91939 8.63864,-26.57141 30.82203,-23.70045c4.0016,-20.5547 8.04613,-25.5066 6.52049,-28.25734c-0.36638,-0.34062 -0.54958,-1.05622 -0.88447,-1.36535c-2.43588,-2.2899 -7.22463,-3.24307 -10.56216,-2.83089c-8.4898,1.04763 -10.95716,10.18146 -20.74361,7.6683c-8.73882,-2.24696 -11.44663,-12.19085 -1.39111,-17.08264c-19.81048,0 -18.49951,14.53227 -4.18479,21.50501c2.88813,1.03904 4.56262,1.90062 6.17128,2.19544c8.95636,1.64014 10.59078,3.60373 10.59078,3.60373c-5.99953,2.95111 -10.54784,6.9756 -11.87598,9.42007c-2.69922,4.96049 5.62742,14.87003 1.45122,20.41158c-2.26986,3.01408 -10.24729,5.05781 -12.4456,-3.57224c-14.68683,14.59524 9.72062,23.39131 23.26823,8.6415c1.87485,6.12834 -6.7552,11.18043 -15.85754,11.56971c-1.57144,1.35104 -3.16578,2.67632 -2.80799,4.83169c0.65262,3.95007 4.59125,8.3295 2.27559,12.28244c-2.9139,4.96335 -7.3334,7.97457 -17.59214,4.11895c5.68753,8.50697 13.30717,9.09948 20.5318,5.21524c0.34635,1.88058 -0.80433,3.31177 -2.75933,4.21055c-0.18033,0.08301 -0.3578,0.16888 -0.55244,0.2433c-0.19178,0.16029 -0.34635,0.34635 -0.51809,0.52381c-3.66384,3.78692 -2.55037,11.20333 -5.12937,15.41674c-0.10018,0.16602 -0.20323,0.33204 -0.31772,0.48947c-0.77857,1.06194 -1.84051,1.88058 -3.3776,2.29849c6.35733,3.42912 14.36625,-9.84084 21.90574,-11.32355c0,0 5.05495,-0.74422 9.59181,-16.43288c-1.19075,0.63258 -2.54179,1.2022 -3.51786,1.9779c-7.3792,4.534 -8.50697,17.18569 -19.34105,16.00066c4.87462,-1.72315 5.42992,-2.31566 7.05002,-4.2678c3.87565,-6.76092 6.74375,-16.93093 16.48154,-16.15809c1.15067,-4.42809 2.24982,-9.87519 3.20013,-16.61607c-10.16429,1.10201 -12.40266,19.01188 -27.1954,19.0863c13.18123,-1.7575 13.59627,-22.32078 27.8423,-23.99813c0.15171,-1.27376 0.29769,-2.58758 0.43508,-3.93862z" fill="#000000"/><path d="M309.79706,141.68557c4.25349,29.86027 -15.69153,56.05957 -15.69153,56.05957c-0.11449,0.31772 -1.77467,3.10281 -1.96359,3.38332c-8.01178,11.83019 -43.03291,18.00719 -57.46499,20.99837c-5.31543,1.09629 -13.22702,4.18765 -18.16748,6.27146v0.16316c-61.69272,20.27132 -58.02602,-17.38891 -57.67681,-20.60908c0.65262,-6.03388 1.73746,-14.50078 3.53217,-18.98039c6.36592,-15.88044 33.06899,-19.44982 47.83597,-27.94534c21.9544,-12.63165 35.58788,-30.60735 39.29465,-54.37363c2.38436,-15.31369 2.66773,-30.96515 4.59125,-46.3504c0.04866,-0.38356 0.30055,-2.66773 0.51236,-4.91183l0.26334,-4.70288c0,0 1.54568,-4.26494 10.1328,-2.27559c8.58712,1.98935 15.71443,1.18788 20.73789,31.28573c1.28807,22.88467 21.09855,39.8156 24.06397,61.98754z" fill="#f3f3f3"/><path d="M313.17466,132.33133c0.30627,1.22223 11.83877,33.47831 -13.34724,69.89342c-0.42363,0.70987 -0.94172,1.42832 -1.50275,2.14392c-0.02576,0.04007 -0.05152,0.07728 -0.08015,0.11736l-0.00572,-0.00859c-2.18972,2.76505 -5.12937,5.43278 -6.99278,6.90977c-14.12008,11.1518 -36.11169,9.38 -53.21437,14.74122c-4.74009,1.48843 -12.19943,5.41561 -18.08161,6.68364c-0.01431,0.01431 -0.0229,0.02576 -0.03721,0.03721c0,0 -33.152,13.78805 -49.61064,2.55324c-16.45864,-11.23481 -13.65066,-21.6882 -12.67172,-29.67136c0.8444,-6.87256 -0.54671,-15.57417 7.73127,-26.59717v0.00286c11.98475,-17.97856 51.6143,-20.6005 65.33079,-41.93948c6.72944,-10.47056 13.79091,-24.89978 14.84426,-37.45128c0.99611,-11.89602 3.55793,-41.57024 3.57797,-42.55203c-0.49805,-17.89269 14.98452,-14.6668 27.32993,-9.3113c12.34541,5.3555 14.31473,31.30577 14.31473,31.30577c0.60969,19.10348 17.54062,35.20432 22.37517,53.10274c0.01145,0.01717 0.02862,0.01145 0.04007,0.04007zM309.79993,141.68843c-2.96542,-22.17194 -22.7759,-39.10287 -24.06397,-61.98754c-5.02346,-30.09785 -12.15077,-29.29638 -20.73789,-31.28573c-8.58712,-1.98935 -10.1328,2.27559 -10.1328,2.27559l-0.26334,4.70288c-0.21468,2.2441 -0.4637,4.52827 -0.51236,4.91183c-1.92351,15.38525 -2.20689,31.03671 -4.59125,46.3504c-3.70964,23.76628 -17.34312,41.74198 -39.29751,54.37363c-14.76698,8.49552 -41.47006,12.0649 -47.83597,27.94534c-1.79757,4.48248 -2.87955,12.94937 -3.53217,18.98039c-0.34635,3.22017 -4.01591,40.88041 57.67681,20.60908v-0.16316c4.94046,-2.08094 12.85205,-5.17231 18.16748,-6.27146c14.43208,-2.99118 49.45321,-9.16818 57.46499,-20.99837c0.19178,-0.28051 1.84909,-3.06846 1.96359,-3.38332c0,0 19.94501,-26.1993 15.69439,-56.05957z" fill="#000000"/><path d="M179.31581,331.79005v0c0,0 6.67505,-10.32172 23.47718,-2.68777l-1.45695,1.98362l2.32711,4.15044c2.67632,3.38046 5.5759,6.62353 8.6644,9.70058c-6.75234,6.11403 -27.21544,4.73436 -34.01357,-1.18216c-0.0687,-2.26127 0.4866,-4.4195 1.11633,-6.56628c0,0 1.28234,-4.62846 1.3997,-5.18376c0.05725,-0.2662 -0.70701,-0.27479 -1.5142,-0.21468z" fill="#808080"/><path d="M175.94107,348.34315c-6.18273,-3.67242 -1.08484,-7.83431 -0.32059,-11.84164l1.94641,-4.49965c0,0 0.936,-0.14884 1.82047,-0.21468c0.81005,-0.06011 1.5743,-0.05152 1.51706,0.21468c-0.11736,0.55816 -1.3997,5.18376 -1.3997,5.18376c-0.62972,2.14678 -1.18502,4.30501 -1.11633,6.56628c6.79814,5.91652 27.2641,7.29619 34.01357,1.18216c-3.0885,-3.07991 -5.98522,-6.32012 -8.6644,-9.70058l-2.32711,-4.15044l1.45695,-1.98362l0.87302,-1.19075c0,0 1.90348,0.92741 4.80879,4.09606c0.5324,0.61541 1.05049,1.23655 1.60865,1.85482c2.49313,2.75074 6.91549,5.93656 8.81897,8.82756c5.49003,8.29229 -25.71556,15.94055 -43.03577,5.65605z" fill="#000000"/><path d="M158.86129,197.05244c2.83089,-2.98832 7.05861,-4.89466 13.24706,-4.89179c8.66154,0.00572 18.63118,3.38905 25.85009,7.48797c7.05575,4.00446 12.28244,10.98292 16.66187,17.61218c1.26517,1.91779 1.86913,3.89569 2.13247,5.92797c-0.40073,-0.32631 -1.11633,-0.54958 -1.53137,-0.46657c-3.32321,8.86477 -3.93576,17.07405 -8.76172,25.70697c-7.58815,13.56192 -25.58961,22.6614 -28.76971,35.07552c-3.83558,14.98452 12.11929,28.7783 23.61457,42.39746c2.81085,3.3318 -2.45878,4.99198 -9.30271,5.54728l-9.48018,-0.17747c-9.71203,-0.01145 -3.65525,-10.37324 -5.44137,-15.72588c-3.79264,-11.40942 -23.52298,-16.69622 -20.09958,-24.64789c5.04064,-11.7071 7.82859,-27.69632 7.2189,-37.86347c-0.9131,-15.15626 -12.03628,-31.08251 -7.47366,-47.98195c0.49805,-1.84909 3.58369,-7.2876 2.13533,-8.00033z" fill="#f3f3f3"/><path d="M170.68861,313.25332c-3.11426,-5.96232 -19.81048,-9.53743 -20.78941,-16.70194c-1.02187,-7.48797 8.11769,-22.52974 8.63005,-32.78848c0.50378,-9.94102 0.42936,-22.20629 -1.70884,-26.5943c-6.7094,-13.7766 -5.06354,-37.80908 0.81005,-40.0217c0.58965,-0.22327 0.97607,-0.22613 1.23655,-0.09732c1.4455,0.71559 -1.64014,6.1541 -2.13819,8.00319c-4.56262,16.90231 6.56056,32.82569 7.47366,47.98195c0.60969,10.16715 -2.17827,26.15636 -7.2189,37.86347c-3.4234,7.95167 16.30694,13.23847 20.09958,24.64789c1.78612,5.35264 -4.27352,15.71443 5.44137,15.72588l9.48018,0.18033c6.84393,-0.55816 12.11356,-2.21834 9.30271,-5.54728c-11.49529,-13.61631 -27.45015,-27.41294 -23.61457,-42.39746c3.1801,-12.41411 21.18156,-21.51359 28.76971,-35.07552c4.82596,-8.63005 5.43851,-16.83934 8.76172,-25.70697c0.41504,-0.08301 1.13064,0.14026 1.53137,0.46657c0.13453,0.10877 0.23185,0.22899 0.27479,0.35493c3.286,9.71203 -3.25166,25.52092 -8.63292,33.96491c-7.77707,12.20802 -30.51289,20.09672 -25.38638,37.38831c3.38619,11.40942 15.34518,21.16438 23.80063,30.76478c2.41298,2.74215 0.62686,7.53949 -4.63132,8.16349c-43.34777,5.13796 -22.44959,-3.25738 -31.49182,-20.57473z" fill="#000000"/><path d="M158.88705,194.06412c-0.1975,2.81657 -1.59148,3.28028 -1.59148,3.28028v0.00859c-1.15926,-0.11736 -2.86237,0.22899 -3.83844,-0.23471c-6.74375,-3.21158 -8.19211,-19.50421 -12.78336,-25.64113c-9.07945,-12.11929 -30.19231,-7.83718 -40.13333,1.62869c-17.00822,16.19244 -5.32401,35.64799 -2.51603,53.68094c1.09343,7.02426 2.65342,18.35067 -10.96003,22.23777c3.07705,0.42649 8.28943,-0.56961 10.96003,-2.03515c8.84473,-4.87748 0.94745,-22.83601 -1.31955,-30.94511c-2.80226,-10.0412 -6.47182,-20.01657 -0.74994,-29.92324c5.33546,-9.24833 17.28014,-17.94421 29.46813,-16.26686c13.72221,1.88344 15.73733,27.57324 27.25838,29.65991c-1.29665,0.51809 -2.45592,1.01328 -3.12571,1.24799c-20.41444,7.20459 -26.39394,-17.907 -39.39484,-11.95899c-13.95693,6.39168 2.39581,37.60299 -0.18319,50.22033c-1.4226,6.96129 -6.6865,12.17653 -14.21741,13.96552c-7.25898,1.71456 -16.98532,-1.58862 -22.91043,-5.59021c11.06593,1.63155 19.96791,-4.4882 19.84483,-15.05036c-0.22613,-19.03764 -11.13749,-38.15257 -1.48271,-56.93546c16.87369,-32.82855 64.4635,-38.06383 67.67508,18.65122z" fill="#b3b3b3"/><path d="M162.15016,194.60511c0,0 -0.32631,4.26494 -5.3326,6.18273v-0.00859c-1.88917,1.21078 -4.11895,2.31566 -5.18662,2.96542c-26.10198,15.88331 -24.86257,-15.13909 -40.20489,-8.11196c-7.96312,3.6438 16.94811,46.63091 -8.52128,59.60032c-14.43781,7.3563 -38.10391,-4.36512 -40.42243,-18.95749c4.79447,9.18535 24.01531,9.9353 23.8407,-3.51786c-0.33204,-26.039 -13.20126,-41.29831 2.81657,-67.37739c8.24077,-13.41594 29.39371,-22.39807 45.9096,-19.24946c8.07475,1.53996 15.9291,7.21604 20.58046,13.4188c4.85745,6.4661 8.08048,27.95966 6.52049,35.05548zM158.89278,194.06412c-3.21444,-56.71505 -50.80425,-51.47977 -67.67794,-18.65122c-9.65478,18.78575 1.25658,37.90068 1.48271,56.93546c0.12308,10.56502 -8.7789,16.68191 -19.84483,15.05036c5.92511,4.0016 15.65145,7.30478 22.91043,5.59021c7.5309,-1.78898 12.79481,-7.00423 14.21741,-13.96552c2.579,-12.61734 -13.77374,-43.82865 0.18319,-50.22033c13.0009,-5.94801 18.98039,19.16645 39.39484,11.95899c0.6698,-0.23471 1.82619,-0.72991 3.12571,-1.24799c-11.51819,-2.08667 -13.5333,-27.77646 -27.25838,-29.65991c-12.18798,-1.67735 -23.7862,8.05792 -29.12167,17.30625c-5.72188,9.90667 -1.01294,15.03157 1.78933,25.07278c2.267,8.1091 8.77844,29.88157 -0.06629,34.75619c-2.67059,1.46553 -7.88297,2.46164 -10.96003,2.03515c13.61344,-3.88996 12.05345,-15.21637 10.96003,-22.23777c-2.80799,-18.03295 -14.49219,-37.4885 2.51603,-53.68094c9.94102,-9.46587 31.05388,-13.74798 40.13333,-1.62869c4.59125,6.13693 6.03961,22.42955 12.78336,25.64113c0.97607,0.4637 2.67632,0.11736 3.83844,0.23471v-0.00859c0,0 1.39398,-0.4637 1.59434,-3.28028z" fill="#000000"/><path d="M367.08173,240.90972v0c0,0 6.67505,-10.32172 23.47718,-2.68777l-1.45695,1.98362l2.32711,4.15044c2.67632,3.38046 5.5759,6.62353 8.6644,9.70058c-6.75234,6.11403 -27.21544,4.73436 -34.01357,-1.18216c-0.0687,-2.26127 0.4866,-4.4195 1.11633,-6.56628c0,0 1.28234,-4.62846 1.3997,-5.18376c0.05725,-0.2662 -0.70701,-0.27479 -1.5142,-0.21468z" fill="#808080"/><path d="M363.70699,257.46282c-6.18273,-3.67242 -1.08484,-7.83431 -0.32059,-11.84164l1.94641,-4.49965c0,0 0.936,-0.14884 1.82047,-0.21468c0.81005,-0.06011 1.5743,-0.05152 1.51706,0.21468c-0.11736,0.55816 -1.3997,5.18376 -1.3997,5.18376c-0.62972,2.14678 -1.18502,4.30501 -1.11633,6.56628c6.79814,5.91652 27.2641,7.29619 34.01357,1.18216c-3.0885,-3.07991 -5.98522,-6.32012 -8.6644,-9.70058l-2.32711,-4.15044l1.45695,-1.98362l0.87302,-1.19075c0,0 1.90348,0.92741 4.80879,4.09606c0.5324,0.61541 1.05049,1.23655 1.60865,1.85482c2.49313,2.75074 6.91549,5.93656 8.81897,8.82756c5.49003,8.29229 -25.71556,15.94055 -43.03577,5.65605z" fill="#000000"/><path d="M287.48773,190.37739c-1.78326,-2.38436 -3.22303,-4.86317 -4.14472,-6.68364c-4.20196,-8.29229 0.00572,-16.17241 8.17494,-19.58435c3.41195,-1.42546 7.1359,-2.03801 10.89992,-2.25269c2.26127,1.1564 10.43335,0.56961 16.00639,3.42626c18.94032,9.69486 20.45452,14.52082 43.68839,10.7339c8.07762,-1.31669 25.36635,9.07372 14.16874,22.64423c-0.95317,14.70973 8.65009,27.39004 11.90175,40.76305c0.8444,3.47206 -9.18535,3.04556 -15.40529,2.36146c-2.57327,-0.28337 -9.32847,-0.79001 -11.06307,-3.84989c0.70987,-4.7315 5.99095,-7.59101 6.83821,-12.14791c1.88917,-10.21008 -2.8223,-24.93413 -7.98888,-33.9735c-23.07931,-9.52311 -44.42116,8.81611 -71.77113,-2.8223c-0.60682,0.2662 -1.03618,0.7757 -1.30524,1.38539z" fill="#f3f3f3"/><path d="M394.55478,242.46398c0,0.00286 0,0.00286 -0.00286,0.00286c-1.17644,0.44367 -2.2899,0.78143 -3.41481,1.1335c-10.3074,2.73643 -21.26457,1.78326 -21.26457,1.78326l-0.03435,0.11736l-0.05439,-0.14026c-8.89912,-1.74032 -13.75084,-6.39454 -14.90151,-7.62536c-0.15457,-0.21754 -0.35493,-0.40359 -0.49519,-0.63258c0.29769,-4.11609 4.72864,-6.5119 6.69795,-9.90667c4.47103,-7.71982 2.81085,-17.86121 -0.25189,-25.70983c-1.43119,-3.64666 -2.55896,-3.85562 -6.44606,-4.59983c-10.43335,-2.00652 -17.16279,-3.70964 -27.83657,-0.8215c-8.92488,2.41012 -33.6615,7.92305 -39.0399,-2.47595c-0.44081,-0.86157 -0.46943,-2.18113 -0.01717,-3.21731c0.2662,-0.60682 0.69269,-1.11633 1.30238,-1.38253c27.34711,11.63841 48.69182,-6.70081 71.77113,2.8223c5.16658,9.03937 9.87805,23.76342 7.98888,33.9735c-0.84726,4.5569 -6.12834,7.41641 -6.83821,12.14791c1.7346,3.06274 8.4898,3.56652 11.06307,3.84989c6.21994,0.68411 16.24969,1.1106 15.40529,-2.36146c-3.25166,-13.37301 -12.85492,-26.05045 -11.90175,-40.76305c11.1976,-13.57051 -6.09113,-23.96092 -14.16874,-22.64423c-23.23388,3.78692 -24.75094,-1.03904 -43.68839,-10.7339c-5.57304,-2.85665 -13.74511,-2.26986 -16.00639,-3.42626c-0.40932,-0.20895 -0.64976,-0.46657 -0.61827,-0.8215c0.61827,-7.43931 23.67755,3.60945 25.47225,4.54831c29.37081,15.38525 34.25115,-2.99118 51.20212,9.83797c18.60542,14.09146 -2.66773,19.91639 3.99301,40.45678c2.65628,8.19497 6.3745,15.17344 11.32355,21.86567c-0.00572,0.00572 -0.06297,0.0229 -0.06297,0.0229c1.90348,2.68491 0.82723,4.69429 0.82436,4.70002z" fill="#000000"/><path d="M263.44666,74.97224c-9.89808,-6.56056 -8.84473,-19.58149 -8.57567,-22.76159c0.05725,-0.92741 0.07156,-1.55141 -0.00572,-1.52278c-5.96805,2.15823 -24.08687,1.42546 -31.90687,-4.89466c1.64014,-3.16578 7.78279,-4.92328 11.34072,-5.42706c3.90714,-0.54958 11.61551,-1.18216 19.84197,4.59983c2.21261,1.55713 4.8002,-8.99644 12.50571,-14.98166c4.67425,-3.63235 13.602,-5.06354 18.67126,-2.59045c8.76172,4.27066 11.08597,1.80902 20.09958,-0.82723c8.03754,-2.34715 11.62696,-10.54498 18.0444,-13.08963c8.81038,-3.49782 16.00066,12.61161 15.07325,18.7514c-0.82723,5.48431 -20.3114,8.04327 -25.644,8.13773l-0.64403,0.59251c2.93966,7.52804 12.9322,6.2228 19.84769,7.07865c-2.05805,14.89293 -18.44227,14.1573 -25.644,2.83089c-3.23162,0.24044 -6.47469,1.23655 -8.76172,3.42054c0.77857,7.18456 -0.72132,13.37587 -7.33912,17.80968c-3.60086,2.40726 -7.60246,2.53606 -11.47239,4.2449c0,0 -9.97251,2.24696 -15.43105,-1.37108z" fill="#f3f3f3"/><path d="M340.725,37.89021c-3.22589,3.87279 -12.56295,3.18296 -17.26869,5.66464c4.37943,3.11712 14.4235,-2.46164 14.42636,5.66177c0.00572,12.0649 -15.00742,17.29159 -24.73949,13.21271c-2.06091,-0.8673 -4.09033,-2.10098 -6.15983,-3.82413c-1.54282,0.28337 -3.11426,1.00183 -4.846,2.1525c0.73277,9.47159 -9.28554,21.64526 -20.32857,18.61973c-3.46061,-0.94745 -2.93393,-3.03412 -2.93393,-3.03412c3.86993,-1.70884 7.87152,-1.83764 11.47239,-4.2449c6.61494,-4.43382 8.11483,-10.62513 7.33912,-17.80968c2.28704,-2.18399 5.5301,-3.1801 8.76172,-3.42054c7.20173,11.32641 23.58595,12.06204 25.644,-2.83089c-6.91549,-0.85585 -16.9109,0.44939 -19.84769,-7.07865l0.64403,-0.59251c5.3326,-0.09446 24.81677,-2.65342 25.644,-8.13773c0.92741,-6.13979 -6.26573,-22.24922 -15.07325,-18.7514c-6.41744,2.54465 -10.00685,10.74248 -18.0444,13.08963c-9.01361,2.63625 -11.335,5.09789 -20.09958,0.82723c-5.0664,-2.47309 -13.99414,-1.0419 -18.67126,2.59045c-7.70551,5.98522 -10.29309,16.53879 -12.50571,14.98166c-8.22646,-5.78199 -15.93483,-5.14941 -19.84197,-4.59983c-3.55793,0.50378 -9.70058,2.26127 -11.34072,5.42706c7.82,6.32012 25.93882,7.05289 31.90687,4.89466c0.07728,-0.02862 0.06583,0.59537 0.00572,1.52278c-2.27559,0.93313 -1.32528,0.61827 -3.62949,1.43405c-1.06767,0.37783 -2.1525,0.70128 -3.28028,0.88447c-11.31496,1.21651 -23.41421,-2.03515 -32.21314,-8.50411c4.33649,-13.31576 29.17903,-11.80443 39.68394,-6.48614c16.99391,-37.32534 31.19986,-7.48224 46.38475,-16.98532c6.29436,-3.93576 10.28737,-9.86946 15.97776,-14.15157c11.08024,-8.34095 34.08227,16.09226 22.93333,29.48816z" fill="#000000"/><path d="M325.04233,19.294c0,-0.85598 1.27313,-1.54989 2.84363,-1.54989c1.5705,0 2.84363,0.69392 2.84363,1.54989c0,0.85598 -1.27313,1.54989 -2.84363,1.54989c-1.5705,0 -2.84363,-0.69392 -2.84363,-1.54989z" fill="#000000"/><path d="M322.70507,27.90053c0,-1.38957 2.0043,-2.51603 4.47675,-2.51603c2.47245,0 4.47675,1.12646 4.47675,2.51603c0,1.38957 -2.0043,2.51603 -4.47675,2.51603c-2.47245,0 -4.47675,-1.12646 -4.47675,-2.51603z" fill="#000000"/><path d="M284.20772,32.48551c1.7117,-1.26231 1.84337,-3.4005 0.72991,-5.12937c-1.13922,-1.77753 1.76895,-3.34325 2.9139,-1.56572c1.80902,2.80799 0.36638,6.04819 -2.40726,8.09765c-1.02187,0.74994 -2.25555,-0.6469 -1.23655,-1.40256z" fill="#000000"/><path d="M279.4848,46.13045c2.66773,-1.019 2.67918,-4.47103 1.1793,-6.78382c-1.43119,-2.20689 2.18113,-4.16761 3.61231,-1.96359c2.74215,4.23345 1.65159,10.33889 -3.22303,12.19657c-2.51316,0.95889 -4.08461,-2.49313 -1.56858,-3.44916z" fill="#000000"/></g></g></svg>